<?xml version="1.0" encoding="UTF-8"?>
<svg id="Layer_2" data-name="Layer 2" xmlns="http://www.w3.org/2000/svg" viewBox="0 0 1053.94 691.26">
  <defs>
    <style>
      .cls-1 {
        fill: #0f0f10;
      }
    </style>
  </defs>
  <g id="Layer_1-2" data-name="Layer 1">
    <g>
      <path class="cls-1" d="M949.89,314.64c93.85,10.55,130.05,131.93,43.2,178.62l-1.49,4.9c82.43,24.97,80.54,138.2,9.58,177.65-9.79,5.44-36.11,15.45-46.52,15.45h-170.43v-376.62h165.66ZM865.27,464.81h58.4c1.81,0,14.6-5.16,17.19-6.65,25.05-14.36,24.09-55.07-1.54-68.59-2.22-1.17-14.36-5.8-15.65-5.8h-58.4v81.04ZM865.27,622.13h67.93c.82,0,13.23-5.13,15.26-6.19,28.69-15,28.84-58.45,1.07-74.5-2.53-1.46-19.44-7.5-21.1-7.5h-63.17v88.2Z"/>
      <path class="cls-1" d="M312.26,691.26l144.12-376.78,96.4.4,138.48,376.38h-89.39l-27.65-76.03-147.82,1.17-25.95,74.86h-88.2ZM545.86,538.71l-42.93-128.71-47.65,128.71h90.58Z"/>
      <polygon class="cls-1" points="83.43 314.64 83.43 610.21 244.32 610.21 247.9 613.79 247.9 691.26 0 691.26 0 314.64 83.43 314.64"/>
      <polygon class="cls-1" points="450.51 0 450.51 107.26 557.77 107.26 557.77 0 619.75 0 619.75 271.74 557.77 271.74 557.77 164.47 450.51 164.47 450.51 271.74 388.54 271.74 388.54 0 450.51 0"/>
      <polygon class="cls-1" points="881.95 0 881.95 57.21 772.3 57.21 772.3 109.65 872.42 109.65 872.42 162.09 772.3 162.09 772.3 214.53 884.33 214.53 884.33 271.74 710.33 271.74 710.33 0 881.95 0"/>
      <polygon class="cls-1" points="319.41 0 319.41 57.21 235.98 57.21 235.98 271.74 176.39 271.74 176.39 60.78 172.81 57.21 92.96 57.21 92.96 0 319.41 0"/>
    </g>
  </g>
</svg>