<svg xmlns="http://www.w3.org/2000/svg" version="1.1" viewBox="0 0 1920 1080">
  <!-- Generator: Adobe Illustrator 28.6.0, SVG Export Plug-In . SVG Version: 1.2.0 Build 709)  -->
  <g>
    <g id="Layer_1">
      <g>
        <g>
          <path d="M822.5,383.5v86.5h-24.5v-86.5h-33.8v-23.4h92.3v23.4h-34Z" fill="#ffffff"/>
          <path d="M952.9,470v-43.7h-43.9v43.7h-24.5v-109.9h24.5v43.1h43.9v-43.1h24.7v109.9h-24.7Z" fill="#ffffff"/>
          <path d="M1014.4,470v-109.9h69.6v23.1h-45.1v20.9h40.9v21.6h-40.9v21.1h45.3v23.3h-69.8Z" fill="#ffffff"/>
        </g>
        <g>
          <path d="M726.8,639.7v-152.6h34v120.1h65.9v32.5h-99.9Z" fill="#ffffff"/>
          <path d="M958.7,608.7h-59l-11,31h-35.7l57.5-152.6h39.4l56.8,152.6h-37l-11-31ZM910.9,577.7h37l-18.3-52.7-18.7,52.7Z" fill="#ffffff"/>
          <path d="M1100.8,487.1c14.8,0,26.4,3.8,34.9,11.4,8.5,7.6,12.7,17.4,12.7,29.5s-2.1,14.4-6.4,20.5c-4.2,6-9.6,10.1-16,12.3,7.5,1.7,13.8,5.8,19.2,12.2s8,14.2,8,23.6-4.4,23-13.2,31.1c-8.8,8.1-20.3,12.2-34.6,12.2h-61.6v-152.6h57.1ZM1095.4,548.2c6,0,10.8-1.5,14.3-4.4,3.5-2.9,5.3-7,5.3-12.2s-1.7-9-5.2-11.9c-3.4-2.9-8.4-4.4-14.9-4.4h-18.1v32.9h18.5ZM1098.2,612c6.6,0,11.8-1.6,15.5-4.8,3.7-3.2,5.6-7.6,5.6-13s-1.9-9.6-5.6-12.9c-3.7-3.3-8.9-5-15.5-5h-21.3v35.7h21.3Z" fill="#ffffff"/>
        </g>
      </g>
    </g>
  </g>
</svg>